<svg xmlns="http://www.w3.org/2000/svg" version="1.1" xmlns:xlink="http://www.w3.org/1999/xlink" xmlns:svgjs="http://svgjs.dev/svgjs" width="1500" height="359" viewBox="0 0 1500 359"><g transform="matrix(1,0,0,1,-0.9090909090909918,-0.36511401739289795)"><svg viewBox="0 0 396 95" data-background-color="#ffffff" preserveAspectRatio="xMidYMid meet" height="359" width="1500" xmlns="http://www.w3.org/2000/svg" xmlns:xlink="http://www.w3.org/1999/xlink"><g id="tight-bounds" transform="matrix(1,0,0,1,0.2400000000000091,0.09661791546608356)"><svg viewBox="0 0 395.52 94.8067641690678" height="94.8067641690678" width="395.52"><g><svg viewBox="0 0 395.52 94.8067641690678" height="94.8067641690678" width="395.52"><g transform="matrix(1,0,0,1,0,61.57639877011182)"><svg viewBox="0 0 395.52 33.23036539895599" height="33.23036539895599" width="395.52"><g id="textblocktransform"><svg viewBox="0 0 395.52 33.23036539895599" height="33.23036539895599" width="395.52" id="textblock"><g><svg viewBox="0 0 395.52 33.23036539895599" height="33.23036539895599" width="395.52"><g transform="matrix(1,0,0,1,0,0)"><svg width="395.52" viewBox="2.58 -31.88 402.26 33.81" height="33.23036539895599" data-palette-color="#264f0b"><path d="M5.8 0.33L5.8 0.33Q4.15 0.33 3.36-0.88 2.58-2.08 2.58-3.98L2.58-3.98Q2.58-4.78 2.58-6.23 2.58-7.68 2.6-9.55 2.63-11.43 2.66-13.53 2.7-15.63 2.76-17.75 2.83-19.88 2.93-21.8 3.03-23.73 3.15-25.23L3.15-25.23Q3.43-27.65 4.13-28.65 4.83-29.65 6.4-29.65L6.4-29.65Q7.73-29.65 8.33-28.64 8.93-27.63 9.1-25.88L9.1-25.88Q9.15-24.8 9.2-23.18 9.25-21.55 9.28-19.63 9.3-17.7 9.31-15.69 9.33-13.68 9.33-11.81 9.33-9.95 9.33-8.44 9.33-6.93 9.3-6.03L9.3-6.03Q9.3-3.65 8.97-2.26 8.65-0.88 7.91-0.28 7.18 0.33 5.8 0.33ZM18.95 1.2L18.95 1.2Q17.92 1.2 17.26 0.56 16.6-0.08 16.15-1.23L16.15-1.23Q15.92-1.83 15.72-3.21 15.52-4.6 15.35-6.45 15.17-8.3 15.04-10.31 14.9-12.33 14.8-14.25 14.7-16.18 14.65-17.71 14.6-19.25 14.6-20.08L14.6-20.08Q14.6-23 14.99-25.04 15.37-27.08 16.4-28.16 17.42-29.25 19.37-29.25L19.37-29.25Q20.72-29.25 22.05-28.16 23.37-27.08 25.15-24.73 26.92-22.38 29.55-18.6L29.55-18.6Q33.05-13.45 35.17-10.96 37.3-8.47 38.22-8.47L38.22-8.47Q38.67-8.47 38.96-8.7 39.25-8.93 39.41-9.61 39.57-10.3 39.62-11.7L39.62-11.7Q39.67-12.3 39.67-13.53 39.67-14.75 39.66-16.29 39.65-17.82 39.62-19.45 39.6-21.08 39.6-22.53 39.6-23.98 39.61-25 39.62-26.03 39.67-26.38L39.67-26.38Q39.97-27.88 40.65-28.45 41.32-29.03 42.52-29.03L42.52-29.03Q43.42-29.03 44.04-28.71 44.65-28.4 45.04-27.79 45.42-27.18 45.61-26.21 45.8-25.25 45.85-23.95L45.85-23.95Q45.87-23.2 45.9-21.78 45.92-20.35 45.95-18.54 45.97-16.73 45.96-14.78 45.95-12.83 45.91-10.99 45.87-9.15 45.8-7.65 45.72-6.15 45.57-5.25L45.57-5.25Q45.27-3.33 44.66-2.04 44.05-0.75 43.04-0.11 42.02 0.53 40.45 0.53L40.45 0.53Q39.02 0.53 37.32-0.91 35.62-2.35 33.66-4.89 31.7-7.43 29.47-10.63L29.47-10.63Q28.05-12.68 26.82-14.41 25.6-16.15 24.66-17.44 23.72-18.73 23.07-19.44 22.42-20.15 22.1-20.15L22.1-20.15Q21.52-20.15 21.3-19.49 21.07-18.82 21.07-16.82L21.07-16.82Q21.07-15.68 21.12-14.29 21.17-12.9 21.25-11.43 21.32-9.95 21.42-8.46 21.52-6.98 21.57-5.59 21.62-4.2 21.64-3.03 21.65-1.85 21.57-1L21.57-1Q21.3 0.28 20.65 0.74 20 1.2 18.95 1.2ZM56.22 0.8L56.22 0.8Q55.45 0.8 54.85 0.29 54.25-0.23 53.83-1.01 53.42-1.8 53.12-2.6L53.12-2.6Q52.85-3.5 52.56-5.03 52.27-6.55 52.01-8.4 51.75-10.25 51.53-12.11 51.32-13.98 51.21-15.59 51.1-17.2 51.1-18.23L51.1-18.23Q51.1-20.8 51.58-22.86 52.07-24.93 52.97-26.49 53.87-28.05 55.12-29.15L55.12-29.15Q56.9-30.65 59.37-31.26 61.85-31.88 64.75-31.88L64.75-31.88Q66.5-31.88 68.27-31.63 70.05-31.38 71.51-30.89 72.97-30.4 73.86-29.75 74.75-29.1 74.75-28.3L74.75-28.3Q74.75-27.63 74.37-27.28 74-26.93 73.32-26.78L73.32-26.78Q72.3-26.65 70.51-26.81 68.72-26.98 66.52-26.98L66.52-26.98Q64.2-26.98 62.63-26.46 61.07-25.95 60.15-24.95L60.15-24.95Q59.47-24.3 59.08-23.39 58.7-22.48 58.53-21.29 58.37-20.1 58.37-18.6L58.37-18.6Q58.37-17.93 58.46-17.39 58.55-16.85 58.75-16.48 58.95-16.1 59.26-15.9 59.57-15.7 60.05-15.7L60.05-15.7Q60.87-15.7 62.06-15.76 63.25-15.83 64.5-15.91 65.75-16 66.84-16.03 67.95-16.05 68.65-16L68.65-16Q69.65-15.88 70.18-15.56 70.72-15.25 70.72-14.63L70.72-14.63Q70.72-14.28 70.57-13.93 70.42-13.58 70.12-13.3L70.12-13.3Q69.67-12.85 68.42-12.66 67.17-12.48 64.97-12.26 62.77-12.05 59.42-11.53L59.42-11.53Q58.67-11.43 58.36-10.94 58.05-10.45 58.05-9.6L58.05-9.6Q58.05-9.25 58.12-8.39 58.2-7.53 58.28-6.45 58.37-5.38 58.45-4.28 58.52-3.18 58.55-2.3 58.57-1.43 58.52-0.98L58.52-0.98Q58.25 0.05 57.65 0.43 57.05 0.8 56.22 0.8ZM81.74 0.33L81.74 0.33Q80.09 0.33 79.31-0.88 78.52-2.08 78.52-3.98L78.52-3.98Q78.52-4.78 78.52-6.23 78.52-7.68 78.54-9.55 78.57-11.43 78.61-13.53 78.64-15.63 78.71-17.75 78.77-19.88 78.87-21.8 78.97-23.73 79.09-25.23L79.09-25.23Q79.37-27.65 80.07-28.65 80.77-29.65 82.34-29.65L82.34-29.65Q83.67-29.65 84.27-28.64 84.87-27.63 85.04-25.88L85.04-25.88Q85.09-24.8 85.14-23.18 85.19-21.55 85.22-19.63 85.24-17.7 85.26-15.69 85.27-13.68 85.27-11.81 85.27-9.95 85.27-8.44 85.27-6.93 85.24-6.03L85.24-6.03Q85.24-3.65 84.92-2.26 84.59-0.88 83.86-0.28 83.12 0.33 81.74 0.33ZM94.89 1.2L94.89 1.2Q93.87 1.2 93.2 0.56 92.54-0.08 92.09-1.23L92.09-1.23Q91.87-1.83 91.67-3.21 91.47-4.6 91.29-6.45 91.12-8.3 90.98-10.31 90.84-12.33 90.74-14.25 90.64-16.18 90.59-17.71 90.54-19.25 90.54-20.08L90.54-20.08Q90.54-23 90.93-25.04 91.32-27.08 92.34-28.16 93.37-29.25 95.32-29.25L95.32-29.25Q96.67-29.25 97.99-28.16 99.32-27.08 101.09-24.73 102.87-22.38 105.49-18.6L105.49-18.6Q108.99-13.45 111.12-10.96 113.24-8.47 114.17-8.47L114.17-8.47Q114.62-8.47 114.9-8.7 115.19-8.93 115.35-9.61 115.52-10.3 115.57-11.7L115.57-11.7Q115.62-12.3 115.62-13.53 115.62-14.75 115.6-16.29 115.59-17.82 115.57-19.45 115.54-21.08 115.54-22.53 115.54-23.98 115.55-25 115.57-26.03 115.62-26.38L115.62-26.38Q115.92-27.88 116.59-28.45 117.27-29.03 118.47-29.03L118.47-29.03Q119.37-29.03 119.98-28.71 120.59-28.4 120.98-27.79 121.37-27.18 121.55-26.21 121.74-25.25 121.79-23.95L121.79-23.95Q121.82-23.2 121.84-21.78 121.87-20.35 121.89-18.54 121.92-16.73 121.9-14.78 121.89-12.83 121.85-10.99 121.82-9.15 121.74-7.65 121.67-6.15 121.52-5.25L121.52-5.25Q121.22-3.33 120.6-2.04 119.99-0.75 118.98-0.11 117.97 0.53 116.39 0.53L116.39 0.53Q114.97 0.53 113.27-0.91 111.57-2.35 109.6-4.89 107.64-7.43 105.42-10.63L105.42-10.63Q103.99-12.68 102.77-14.41 101.54-16.15 100.6-17.44 99.67-18.73 99.02-19.44 98.37-20.15 98.04-20.15L98.04-20.15Q97.47-20.15 97.24-19.49 97.02-18.82 97.02-16.82L97.02-16.82Q97.02-15.68 97.07-14.29 97.12-12.9 97.19-11.43 97.27-9.95 97.37-8.46 97.47-6.98 97.52-5.59 97.57-4.2 97.58-3.03 97.59-1.85 97.52-1L97.52-1Q97.24 0.28 96.59 0.74 95.94 1.2 94.89 1.2ZM130.76 0.33L130.76 0.33Q129.11 0.33 128.33-0.88 127.54-2.08 127.54-3.98L127.54-3.98Q127.54-4.78 127.54-6.23 127.54-7.68 127.56-9.55 127.59-11.43 127.63-13.53 127.66-15.63 127.73-17.75 127.79-19.88 127.89-21.8 127.99-23.73 128.11-25.23L128.11-25.23Q128.39-27.65 129.09-28.65 129.79-29.65 131.36-29.65L131.36-29.65Q132.69-29.65 133.29-28.64 133.89-27.63 134.06-25.88L134.06-25.88Q134.11-24.8 134.16-23.18 134.21-21.55 134.24-19.63 134.26-17.7 134.28-15.69 134.29-13.68 134.29-11.81 134.29-9.95 134.29-8.44 134.29-6.93 134.26-6.03L134.26-6.03Q134.26-3.65 133.94-2.26 133.61-0.88 132.88-0.28 132.14 0.33 130.76 0.33ZM152.21 1.15L152.21 1.15Q150.84 1.15 150.14 0.24 149.44-0.68 149.29-2.7L149.29-2.7Q149.26-3.53 149.25-4.91 149.24-6.3 149.26-8.04 149.29-9.78 149.32-11.66 149.36-13.55 149.4-15.39 149.44-17.23 149.45-18.81 149.46-20.4 149.46-21.53L149.46-21.53Q149.46-23.03 149.05-23.53 148.64-24.03 147.19-24.03L147.19-24.03Q145.64-24.03 144.07-23.79 142.51-23.55 140.99-23.55L140.99-23.55Q140.24-23.55 139.64-23.83 139.04-24.1 138.7-24.64 138.36-25.18 138.36-25.95L138.36-25.95Q138.36-26.85 139.27-27.53 140.19-28.2 141.81-28.66 143.44-29.13 145.64-29.41 147.84-29.7 150.44-29.83 153.04-29.95 155.84-29.95L155.84-29.95Q157.66-29.95 159.42-29.88 161.19-29.8 162.75-29.6 164.31-29.4 165.5-29 166.69-28.6 167.36-27.96 168.04-27.33 168.04-26.38L168.04-26.38Q168.04-25.5 167.67-24.93 167.31-24.35 166.64-24.06 165.96-23.78 164.96-23.78L164.96-23.78Q163.66-23.78 162.74-23.86 161.81-23.95 160.56-23.95L160.56-23.95Q158.71-23.95 157.86-23.66 157.01-23.38 156.79-22.56 156.56-21.75 156.51-20.13L156.51-20.13Q156.49-19.05 156.42-17.82 156.36-16.6 156.29-15.25 156.21-13.9 156.1-12.51 155.99-11.13 155.87-9.76 155.76-8.4 155.65-7.11 155.54-5.83 155.41-4.7 155.29-3.58 155.19-2.65L155.19-2.65Q154.89-1.23 154.55-0.39 154.21 0.45 153.67 0.8 153.14 1.15 152.21 1.15ZM184.01 0.5L184.01 0.5Q182.61 0.5 182.01-0.19 181.41-0.88 181.16-2.33L181.16-2.33Q181.08-2.85 181.05-3.53 181.01-4.2 180.97-4.95 180.93-5.7 180.9-6.46 180.86-7.23 180.81-7.93L180.81-7.93Q180.71-9.45 180.46-10.58 180.21-11.7 179.16-12.4L179.16-12.4Q177.98-13.18 176.87-13.93 175.76-14.68 174.83-15.53L174.83-15.53Q173.78-16.5 172.93-17.82 172.08-19.15 171.5-20.66 170.91-22.18 170.58-23.73 170.26-25.28 170.26-26.63L170.26-26.63Q170.26-27.73 170.7-28.5 171.13-29.28 171.9-29.69 172.66-30.1 173.63-30.1L173.63-30.1Q174.46-30.1 175.11-29.39 175.76-28.68 176.31-27.03L176.31-27.03Q176.61-25.85 177.06-24.61 177.51-23.38 178.08-22.23L178.08-22.23Q178.81-20.68 179.73-19.39 180.66-18.1 181.8-17.35 182.93-16.6 184.26-16.6L184.26-16.6Q185.46-16.6 186.62-17.32 187.78-18.05 188.86-19.2L188.86-19.2Q190.23-20.7 191.33-22.6 192.43-24.5 193.06-26.13L193.06-26.13Q193.86-27.9 194.51-28.74 195.16-29.58 195.96-29.58L195.96-29.58Q196.88-29.58 197.6-29.1 198.31-28.63 198.71-27.85 199.11-27.08 199.11-26.1L199.11-26.1Q199.11-24.9 198.73-23.5 198.36-22.1 197.68-20.65 197.01-19.2 196.1-17.86 195.18-16.53 194.13-15.48L194.13-15.48Q192.91-14.25 191.67-13.38 190.43-12.5 189.38-11.83L189.38-11.83Q188.68-11.38 188.3-10.98 187.91-10.58 187.71-10.1 187.51-9.63 187.33-8.9L187.33-8.9Q187.26-8.38 187.18-7.6 187.11-6.83 187.03-5.94 186.96-5.05 186.88-4.14 186.81-3.23 186.71-2.43L186.71-2.43Q186.53-1.05 185.85-0.28 185.16 0.5 184.01 0.5ZM221.3 0.33L221.3 0.33Q219.65 0.33 218.87-0.88 218.08-2.08 218.08-3.98L218.08-3.98Q218.08-4.78 218.08-6.23 218.08-7.68 218.1-9.55 218.13-11.43 218.17-13.53 218.2-15.63 218.27-17.75 218.33-19.88 218.43-21.8 218.53-23.73 218.65-25.23L218.65-25.23Q218.93-27.65 219.63-28.65 220.33-29.65 221.9-29.65L221.9-29.65Q223.23-29.65 223.83-28.64 224.43-27.63 224.6-25.88L224.6-25.88Q224.65-24.8 224.7-23.18 224.75-21.55 224.78-19.63 224.8-17.7 224.82-15.69 224.83-13.68 224.83-11.81 224.83-9.95 224.83-8.44 224.83-6.93 224.8-6.03L224.8-6.03Q224.8-3.65 224.48-2.26 224.15-0.88 223.42-0.28 222.68 0.33 221.3 0.33ZM234.45 1.2L234.45 1.2Q233.43 1.2 232.76 0.56 232.1-0.08 231.65-1.23L231.65-1.23Q231.43-1.83 231.23-3.21 231.03-4.6 230.85-6.45 230.68-8.3 230.54-10.31 230.4-12.33 230.3-14.25 230.2-16.18 230.15-17.71 230.1-19.25 230.1-20.08L230.1-20.08Q230.1-23 230.49-25.04 230.88-27.08 231.9-28.16 232.93-29.25 234.88-29.25L234.88-29.25Q236.23-29.25 237.55-28.16 238.88-27.08 240.65-24.73 242.43-22.38 245.05-18.6L245.05-18.6Q248.55-13.45 250.68-10.96 252.8-8.47 253.73-8.47L253.73-8.47Q254.18-8.47 254.46-8.7 254.75-8.93 254.91-9.61 255.08-10.3 255.13-11.7L255.13-11.7Q255.18-12.3 255.18-13.53 255.18-14.75 255.16-16.29 255.15-17.82 255.13-19.45 255.1-21.08 255.1-22.53 255.1-23.98 255.11-25 255.13-26.03 255.18-26.38L255.18-26.38Q255.48-27.88 256.15-28.45 256.83-29.03 258.03-29.03L258.03-29.03Q258.93-29.03 259.54-28.71 260.15-28.4 260.54-27.79 260.93-27.18 261.11-26.21 261.3-25.25 261.35-23.95L261.35-23.95Q261.38-23.2 261.4-21.78 261.43-20.35 261.45-18.54 261.48-16.73 261.46-14.78 261.45-12.83 261.41-10.99 261.38-9.15 261.3-7.65 261.23-6.15 261.08-5.25L261.08-5.25Q260.78-3.33 260.16-2.04 259.55-0.75 258.54-0.11 257.53 0.53 255.95 0.53L255.95 0.53Q254.53 0.53 252.83-0.91 251.13-2.35 249.16-4.89 247.2-7.43 244.98-10.63L244.98-10.63Q243.55-12.68 242.33-14.41 241.1-16.15 240.16-17.44 239.23-18.73 238.58-19.44 237.93-20.15 237.6-20.15L237.6-20.15Q237.03-20.15 236.8-19.49 236.58-18.82 236.58-16.82L236.58-16.82Q236.58-15.68 236.63-14.29 236.68-12.9 236.75-11.43 236.83-9.95 236.93-8.46 237.03-6.98 237.08-5.59 237.13-4.2 237.14-3.03 237.15-1.85 237.08-1L237.08-1Q236.8 0.28 236.15 0.74 235.5 1.2 234.45 1.2ZM276.15 1.23L276.15 1.23Q273.92 1.23 271.86 0.86 269.8 0.5 268.17-0.11 266.55-0.73 265.6-1.56 264.65-2.4 264.65-3.38L264.65-3.38Q264.65-4.2 265.02-4.67 265.4-5.15 266.05-5.35 266.7-5.55 267.42-5.55L267.42-5.55Q267.9-5.55 268.86-5.16 269.82-4.78 271.25-4.38 272.67-3.98 274.55-3.98L274.55-3.98Q276.52-3.98 278.01-4.13 279.5-4.28 280.5-4.71 281.5-5.15 281.99-5.91 282.47-6.68 282.47-7.88L282.47-7.88Q282.47-9 281.9-9.88 281.32-10.75 280.3-11.48 279.27-12.2 277.89-12.84 276.5-13.48 274.87-14.13L274.87-14.13Q272.9-14.9 271.19-15.78 269.47-16.65 268.19-17.7 266.9-18.75 266.19-20.08 265.47-21.4 265.47-23.1L265.47-23.1Q265.47-25 266.35-26.39 267.22-27.78 268.71-28.73 270.2-29.68 272.04-30.23 273.87-30.78 275.8-31.01 277.72-31.25 279.42-31.25L279.42-31.25Q281.55-31.25 283.39-30.94 285.22-30.63 286.64-30.06 288.05-29.5 288.84-28.78 289.62-28.05 289.62-27.23L289.62-27.23Q289.62-26.5 289.27-26.01 288.92-25.53 288.37-25.3 287.82-25.08 287.15-25.08L287.15-25.08Q286.67-25.08 285.81-25.51 284.95-25.95 283.6-26.39 282.25-26.83 280.25-26.83L280.25-26.83Q279-26.83 277.77-26.65 276.55-26.48 275.55-26.04 274.55-25.6 273.95-24.86 273.35-24.13 273.35-22.98L273.35-22.98Q273.35-21.88 273.89-21.04 274.42-20.2 275.39-19.54 276.35-18.88 277.65-18.28 278.95-17.68 280.47-17.07L280.47-17.07Q282.5-16.25 284.32-15.28 286.15-14.3 287.56-13.11 288.97-11.93 289.79-10.45 290.6-8.97 290.6-7.15L290.6-7.15Q290.6-4.83 289.49-3.21 288.37-1.6 286.4-0.63 284.42 0.35 281.8 0.79 279.17 1.23 276.15 1.23ZM298.52 0.33L298.52 0.33Q296.87 0.33 296.08-0.88 295.3-2.08 295.3-3.98L295.3-3.98Q295.3-4.78 295.3-6.23 295.3-7.68 295.32-9.55 295.35-11.43 295.38-13.53 295.42-15.63 295.48-17.75 295.55-19.88 295.65-21.8 295.75-23.73 295.87-25.23L295.87-25.23Q296.15-27.65 296.85-28.65 297.55-29.65 299.12-29.65L299.12-29.65Q300.45-29.65 301.05-28.64 301.65-27.63 301.82-25.88L301.82-25.88Q301.87-24.8 301.92-23.18 301.97-21.55 302-19.63 302.02-17.7 302.03-15.69 302.05-13.68 302.05-11.81 302.05-9.95 302.05-8.44 302.05-6.93 302.02-6.03L302.02-6.03Q302.02-3.65 301.7-2.26 301.37-0.88 300.63-0.28 299.9 0.33 298.52 0.33ZM322.32 1.93L322.32 1.93Q318.49 1.93 315.47 0.84 312.44-0.25 310.32-2.36 308.19-4.48 307.09-7.63 305.99-10.78 305.99-14.93L305.99-14.93Q305.99-18.5 307.01-21.18 308.02-23.85 309.79-25.75 311.57-27.65 313.88-28.83 316.19-30 318.79-30.55 321.39-31.1 324.04-31.1L324.04-31.1Q325.92-31.1 327.72-30.76 329.52-30.43 330.96-29.83 332.39-29.23 333.26-28.46 334.12-27.7 334.12-26.83L334.12-26.83Q334.12-25.88 333.47-25.34 332.82-24.8 331.84-24.8L331.84-24.8Q331.24-24.8 330.56-25.05 329.87-25.3 328.93-25.63 327.99-25.95 326.66-26.21 325.32-26.48 323.39-26.48L323.39-26.48Q321.09-26.48 319.16-25.68 317.22-24.88 315.78-23.38 314.34-21.88 313.56-19.71 312.77-17.55 312.77-14.8L312.77-14.8Q312.77-10.75 314.03-8.16 315.29-5.58 317.71-4.36 320.12-3.15 323.52-3.15L323.52-3.15Q325.29-3.15 326.83-3.49 328.37-3.83 329.52-4.54 330.67-5.25 331.32-6.34 331.97-7.43 331.97-8.93L331.97-8.93Q331.97-10.15 331.27-11.09 330.57-12.03 329.18-12.59 327.79-13.15 325.74-13.23L325.74-13.23Q323.64-13.38 322.46-13.83 321.27-14.28 321.27-15.48L321.27-15.48Q321.27-16.43 322.01-16.95 322.74-17.48 324.12-17.69 325.49-17.9 327.42-17.9L327.42-17.9Q329.97-17.9 332.03-17.41 334.09-16.93 335.54-15.91 336.99-14.9 337.77-13.33 338.54-11.75 338.54-9.6L338.54-9.6Q338.54-6.4 337.33-4.17 336.12-1.95 333.93-0.61 331.74 0.73 328.79 1.33 325.84 1.93 322.32 1.93ZM367.39 0.55L367.39 0.55Q366.32 0.55 365.8 0.1 365.29-0.35 365.14-1.4L365.14-1.4Q365.09-2.3 365.08-3.29 365.07-4.28 365.07-5.29 365.07-6.3 365.07-7.25 365.07-8.2 365.08-9.03 365.09-9.85 365.07-10.43L365.07-10.43Q365.07-11.73 364.83-12.26 364.59-12.8 364.12-13.03L364.12-13.03Q363.57-13.28 362.05-13.45 360.54-13.63 357.22-13.63L357.22-13.63Q355.34-13.63 354.18-13.6 353.02-13.58 352.33-13.51 351.64-13.45 351.25-13.36 350.87-13.28 350.54-13.13L350.54-13.13Q350.19-12.98 349.87-12.64 349.54-12.3 349.47-11.53L349.47-11.53Q349.39-11.15 349.35-10.63 349.32-10.1 349.27-9.43 349.22-8.75 349.19-7.91 349.17-7.08 349.13-6.04 349.09-5 349.07-3.73L349.07-3.73Q348.94-2.05 348.59-1.18 348.24-0.3 347.64 0.01 347.04 0.33 346.12 0.33L346.12 0.33Q344.74 0.33 344.05-0.91 343.37-2.15 343.02-4.03L343.02-4.03Q342.89-5 342.78-6.4 342.67-7.8 342.62-9.34 342.57-10.88 342.53-12.35 342.49-13.83 342.49-14.95L342.49-14.95Q342.49-16.68 342.53-18.2 342.57-19.73 342.67-21.09 342.77-22.45 342.88-23.63 342.99-24.8 343.17-25.78L343.17-25.78Q343.47-27.5 343.94-28.65 344.42-29.8 345.13-30.38 345.84-30.95 346.84-30.95L346.84-30.95Q347.99-30.95 348.55-30.14 349.12-29.33 349.32-27.28L349.32-27.28Q349.37-26.55 349.42-25.81 349.47-25.08 349.52-24.38 349.57-23.68 349.62-23.09 349.67-22.5 349.72-22.05 349.77-21.6 349.79-21.33L349.79-21.33Q349.94-20.43 350.18-19.89 350.42-19.35 351.09-19.2L351.09-19.2Q351.97-19.03 353.67-18.99 355.37-18.95 357.29-18.95L357.29-18.95Q358.87-18.95 360.24-18.91 361.62-18.88 362.64-18.9 363.67-18.93 364.09-19.05L364.09-19.05Q364.54-19.23 364.82-19.69 365.09-20.15 365.19-21.28L365.19-21.28Q365.24-21.8 365.29-22.53 365.34-23.25 365.4-24.18 365.47-25.1 365.54-26.11 365.62-27.13 365.74-28.18L365.74-28.18Q365.97-30.05 366.57-30.81 367.17-31.58 368.07-31.58L368.07-31.58Q369.34-31.58 370-30.64 370.67-29.7 371.02-27.5L371.02-27.5Q371.19-26.85 371.3-25.73 371.42-24.6 371.5-23.14 371.59-21.68 371.63-20.01 371.67-18.35 371.67-16.65L371.67-16.65Q371.67-15.25 371.62-13.74 371.57-12.23 371.48-10.71 371.39-9.2 371.27-7.79 371.14-6.38 371-5.18 370.87-3.98 370.72-3.08L370.72-3.08Q370.32-1.15 369.48-0.3 368.64 0.55 367.39 0.55ZM389.01 1.15L389.01 1.15Q387.64 1.15 386.94 0.24 386.24-0.68 386.09-2.7L386.09-2.7Q386.06-3.53 386.05-4.91 386.04-6.3 386.06-8.04 386.09-9.78 386.13-11.66 386.16-13.55 386.2-15.39 386.24-17.23 386.25-18.81 386.26-20.4 386.26-21.53L386.26-21.53Q386.26-23.03 385.85-23.53 385.44-24.03 383.99-24.03L383.99-24.03Q382.44-24.03 380.88-23.79 379.31-23.55 377.79-23.55L377.79-23.55Q377.04-23.55 376.44-23.83 375.84-24.1 375.5-24.64 375.16-25.18 375.16-25.95L375.16-25.95Q375.16-26.85 376.08-27.53 376.99-28.2 378.61-28.66 380.24-29.13 382.44-29.41 384.64-29.7 387.24-29.83 389.84-29.95 392.64-29.95L392.64-29.95Q394.46-29.95 396.23-29.88 397.99-29.8 399.55-29.6 401.11-29.4 402.3-29 403.49-28.6 404.16-27.96 404.84-27.33 404.84-26.38L404.84-26.38Q404.84-25.5 404.48-24.93 404.11-24.35 403.44-24.06 402.76-23.78 401.76-23.78L401.76-23.78Q400.46-23.78 399.54-23.86 398.61-23.95 397.36-23.95L397.36-23.95Q395.51-23.95 394.66-23.66 393.81-23.38 393.59-22.56 393.36-21.75 393.31-20.13L393.31-20.13Q393.29-19.05 393.23-17.82 393.16-16.6 393.09-15.25 393.01-13.9 392.9-12.51 392.79-11.13 392.68-9.76 392.56-8.4 392.45-7.11 392.34-5.83 392.21-4.7 392.09-3.58 391.99-2.65L391.99-2.65Q391.69-1.23 391.35-0.39 391.01 0.45 390.48 0.8 389.94 1.15 389.01 1.15Z" opacity="1" transform="matrix(1,0,0,1,0,0)" fill="#264f0b" class="wordmark-text-0" data-fill-palette-color="primary" id="text-0"></path></svg></g></svg></g></svg></g></svg></g><g transform="matrix(1,0,0,1,155.7661766874851,0)"><svg viewBox="0 0 83.98764662502975 53.73150702818789" height="53.73150702818789" width="83.98764662502975"><g><svg xmlns:dc="http://purl.org/dc/elements/1.1/" xmlns:cc="http://creativecommons.org/ns#" xmlns:rdf="http://www.w3.org/1999/02/22-rdf-syntax-ns#" xmlns:svg="http://www.w3.org/2000/svg" xmlns="http://www.w3.org/2000/svg" xmlns:sodipodi="http://sodipodi.sourceforge.net/DTD/sodipodi-0.dtd" xmlns:inkscape="http://www.inkscape.org/namespaces/inkscape" viewBox="1.4670729841832628 17.603600620974557 77.14145967295407 49.351625496632806" version="1.1" x="0" y="0" height="53.73150702818789" width="83.98764662502975" class="icon-icon-0" data-fill-palette-color="accent" id="icon-0"><path d="M18.69 17.75c9.6-1.3 16.8 6.3 21.9 13.4 3.8-4.9 7.2-10.8 13.7-12.5 10.5-4 20.801 4.886 23.8 15.7 2.001 12.699-1.6 27.7-14.2 31.9-10.6 3.2-18.5-5.1-24.2-12.6-4.9 5.7-8.972 12.558-18.6 12.7-9.971-0.399-17.7-7.1-19-16-2.516-13.257 2.5-29.8 16.6-32.6m23.5 16.5c3.9 8.6 6.9 20.9 17.9 22.2 8 1.4 13.501-6.086 13.9-14.1 0.729-7.957-5.3-14.1-12.4-14.6-7.1-1.2-13.8 2.7-19.4 6.5m-27.7-5.4c-8.9 2.1-10.5 14.6-6.5 21.6 6.891 13.885 27.061 7.178 28.9-2.9-3.1-9.5-10.3-22.6-22.4-18.7z" fill="#cf5c22" stroke="none" data-fill-palette-color="accent"></path></svg></g></svg></g><g></g></svg></g><defs></defs></svg><rect width="395.52" height="94.8067641690678" fill="none" stroke="none" visibility="hidden"></rect></g></svg></g></svg>